<svg id="Layer_1" data-name="Layer 1" xmlns="http://www.w3.org/2000/svg" viewBox="0 0 100 100"><defs><style>.cls-1{fill:#fff;}</style></defs><title>twitter</title><path class="cls-1" d="M91,.25H8.66A8.73,8.73,0,0,0-.08,9V91a8.72,8.72,0,0,0,8.74,8.71H91A8.73,8.73,0,0,0,99.74,91V9A8.73,8.73,0,0,0,91,.25ZM76.84,36.19c0,.6,0,1.2,0,1.8,0,18.36-14,39.53-39.65,39.53a39.55,39.55,0,0,1-21.37-6.24A28.31,28.31,0,0,0,36.5,65.52a14,14,0,0,1-13-9.64,14.3,14.3,0,0,0,2.63.25,13.89,13.89,0,0,0,3.67-.49A13.91,13.91,0,0,1,18.59,42v-.17a13.91,13.91,0,0,0,6.31,1.74A13.87,13.87,0,0,1,20.59,25,39.58,39.58,0,0,0,49.32,39.54,13.67,13.67,0,0,1,49,36.38a14,14,0,0,1,24.11-9.51,27.86,27.86,0,0,0,8.85-3.37,13.92,13.92,0,0,1-6.13,7.69,28.27,28.27,0,0,0,8-2.19A28.15,28.15,0,0,1,76.84,36.19Z"/></svg>